P3
2 2
255
50 50 50 90 90 90 120 120 120 180 180 180

