P3
2 3
255
182 145 0 72 72 85 72 36 0 109 109 0 145 145 0 109 109 85
